<svg width="491" height="303" viewBox="0 0 491 303" fill="none" xmlns="http://www.w3.org/2000/svg">
<path fill-rule="evenodd" clip-rule="evenodd" d="M367.271 1.10156C390.764 1.24401 429.978 7.91064 455.764 18.5849C466.859 24.1726 475.852 33.3972 477.972 43.1562L489.84 133.307L490.279 263.221L469.995 263.607V282.389C471.072 306.71 434.027 307.667 433.136 282.152L432.78 263.285L301.762 263.285L301.406 282.153C300.515 307.668 263.471 306.711 264.548 282.389V263.607L244.263 263.221L244.702 133.307L256.57 43.1565C258.69 33.3974 267.683 24.1729 278.779 18.5851C304.385 7.4981 338.714 1.3569 367.271 1.10156Z" fill="#737373" stroke="black" stroke-width="1.41664"/>
<path d="M298.573 206.06C298.573 210.412 296.844 214.586 293.767 217.663C290.69 220.74 286.516 222.469 282.165 222.469C277.813 222.469 273.64 220.74 270.562 217.663C267.485 214.586 265.757 210.412 265.757 206.06C265.757 201.709 267.485 197.535 270.562 194.458C273.64 191.381 277.813 189.652 282.165 189.652C286.516 189.652 290.69 191.381 293.767 194.458C296.844 197.535 298.573 201.709 298.573 206.06Z" fill="white" stroke="black" stroke-width="1.44097"/>
<path d="M467.422 206.06C467.422 210.412 465.694 214.586 462.617 217.663C459.539 220.74 455.366 222.469 451.014 222.469C446.663 222.469 442.489 220.74 439.412 217.663C436.335 214.586 434.606 210.412 434.606 206.06C434.606 201.709 436.335 197.535 439.412 194.458C442.489 191.381 446.663 189.652 451.014 189.652C455.366 189.652 459.539 191.381 462.617 194.458C465.694 197.535 467.422 201.709 467.422 206.06Z" fill="white" stroke="black" stroke-width="1.44097"/>
<path d="M417.465 26.6191H317.29C314.158 26.6191 311.619 28.5232 311.619 30.8719V34.6521C311.619 37.0008 314.158 38.9048 317.29 38.9048H417.465C420.597 38.9048 423.135 37.0008 423.135 34.6521V30.8719C423.135 28.5232 420.597 26.6191 417.465 26.6191Z" fill="white" stroke="black" stroke-width="1.41664"/>
<path d="M366.744 56.4482H447.783C450.924 56.4482 455.343 60.9438 455.343 63.2998C459.627 87.8869 462.685 111.861 465.739 135.832C466.447 143.15 462.737 145.047 453.217 144.574L280.669 144.515C271.148 144.987 267.438 143.091 268.147 135.773C271.201 111.801 274.258 87.8274 278.542 63.2403C278.542 60.8843 282.962 56.3887 286.103 56.3887H367.141" fill="white"/>
<path d="M366.744 56.4482H447.783C450.924 56.4482 455.343 60.9438 455.343 63.2998C459.627 87.8869 462.685 111.861 465.739 135.832C466.447 143.15 462.737 145.047 453.217 144.574L280.669 144.515C271.148 144.987 267.438 143.091 268.147 135.773C271.201 111.801 274.258 87.8274 278.542 63.2403C278.542 60.8843 282.962 56.3887 286.103 56.3887H367.141" stroke="black" stroke-width="1.41664"/>
<path fill-rule="evenodd" clip-rule="evenodd" d="M132.428 89.8107C138.47 90.7315 139.652 93.1479 139.77 97.3574V109.799L167.305 110.207C177.713 109.839 186.658 113.206 192.189 125.3L212.177 175.272C226.727 179.283 233.054 189.853 233.39 198.523V263.996H214.217V286.024C215.147 307.021 180.721 307.847 179.951 285.82L179.543 264.2L55.0787 264.2L54.6708 285.82C53.9013 307.847 19.4751 307.02 20.4049 286.024V263.996H1.23233V198.523C1.56789 189.853 7.89512 179.283 22.4446 175.271L42.433 125.3C47.9636 113.206 56.9093 109.839 67.3166 110.207L94.8517 109.799V97.3572C94.97 93.1477 96.1516 90.7313 102.194 89.8105L132.428 89.8107Z" fill="#737373" stroke="black" stroke-width="1.22297"/>
<path fill-rule="evenodd" clip-rule="evenodd" d="M42.5183 174.248L192.272 174.452L177.885 135.68C174.371 127.868 170.86 127.7 162.597 127.892L72.313 127.604C64.8683 127.302 59.2707 127.917 56.7368 136.546L42.5183 174.248Z" fill="white" stroke="black" stroke-width="1.22297"/>
<path d="M213.557 210.048C213.557 212.177 213.138 214.286 212.324 216.254C211.509 218.221 210.315 220.009 208.809 221.515C207.304 223.021 205.516 224.216 203.549 225.031C201.582 225.846 199.473 226.265 197.343 226.265C195.214 226.265 193.105 225.846 191.138 225.031C189.17 224.216 187.383 223.021 185.877 221.515C184.372 220.009 183.178 218.221 182.363 216.254C181.549 214.286 181.13 212.177 181.13 210.048C181.13 207.918 181.549 205.809 182.363 203.842C183.178 201.874 184.372 200.086 185.877 198.58C187.383 197.074 189.17 195.88 191.138 195.065C193.105 194.25 195.214 193.83 197.343 193.83C199.473 193.83 201.582 194.25 203.549 195.065C205.516 195.88 207.304 197.074 208.809 198.58C210.315 200.086 211.509 201.874 212.324 203.842C213.138 205.809 213.557 207.918 213.557 210.048Z" fill="white" stroke="black" stroke-width="1.22669"/>
<path d="M54.3784 210.048C54.379 212.177 53.96 214.286 53.1455 216.254C52.331 218.221 51.1368 220.009 49.6312 221.515C48.1256 223.021 46.3381 224.216 44.3707 225.031C42.4034 225.846 40.2947 226.265 38.1652 226.265C36.0357 226.265 33.927 225.846 31.9596 225.031C29.9922 224.216 28.2047 223.021 26.6991 221.515C25.1935 220.009 23.9994 218.221 23.1848 216.254C22.3703 214.286 21.9514 212.177 21.952 210.048C21.9514 207.918 22.3703 205.809 23.1848 203.842C23.9994 201.874 25.1935 200.086 26.6991 198.58C28.2047 197.074 29.9922 195.88 31.9596 195.065C33.927 194.25 36.0357 193.83 38.1652 193.83C40.2947 193.83 42.4034 194.25 44.3707 195.065C46.3381 195.88 48.1256 197.074 49.6312 198.58C51.1368 200.086 52.331 201.874 53.1455 203.842C53.96 205.809 54.379 207.918 54.3784 210.048Z" fill="white" stroke="black" stroke-width="1.22669"/>
</svg>
