<svg width="50" height="50" viewBox="0 0 50 50" fill="none" xmlns="http://www.w3.org/2000/svg">
<path d="M29.887 28.3184H19.949C19.09 28.3184 18.395 29.0274 18.395 29.9004C18.395 30.7754 19.089 31.4844 19.949 31.4844H29.887C30.742 31.4844 31.442 30.7754 31.442 29.9004C31.441 29.0274 30.742 28.3184 29.887 28.3184Z" fill="#737373"/>
<path d="M38.383 1.17578H11.619C5.43102 1.17578 0.416016 5.98778 0.416016 11.9238V38.0778C0.416016 44.0118 5.43202 48.8238 11.619 48.8238H38.383C44.571 48.8238 49.584 44.0108 49.584 38.0778V11.9238C49.584 5.98678 44.57 1.17578 38.383 1.17578ZM38.485 31.8618C38.485 31.8618 37.049 37.3528 31.994 38.8998H18.511C18.511 38.8998 12.19 37.4378 11.515 31.4348V18.3098C11.515 18.3098 12.025 12.4758 18.763 11.1008H26.432C26.432 11.1008 33.26 11.8748 33.684 19.7678L34.863 21.6218H36.884C36.884 21.6218 38.487 21.0538 38.487 22.8548V31.8618H38.485Z" fill="#737373"/>
<path d="M20.18 21.6211H24.877C25.735 21.6211 26.426 20.9091 26.426 20.0351C26.426 19.1641 25.736 18.4551 24.877 18.4551H20.18C19.324 18.4551 18.627 19.1641 18.627 20.0351C18.627 20.9091 19.323 21.6211 20.18 21.6211Z" fill="#737373"/>
</svg>
