<svg width="512" height="512" viewBox="0 0 512 512" fill="none" xmlns="http://www.w3.org/2000/svg">
<path d="M42.66 423.25C42.66 457.02 70.14 484.5 103.91 484.5H408.09C441.86 484.5 469.34 457.03 469.34 423.25V195.02C469.34 161.25 441.86 133.77 408.09 133.77H294.63L317.44 110.96C323.06 113.59 329.32 115.07 335.93 115.07C360.07 115.07 379.72 95.4302 379.72 71.2802C379.72 47.1402 360.08 27.4902 335.93 27.4902C311.78 27.4902 292.14 47.1302 292.14 71.2802C292.14 77.1102 293.29 82.6702 295.37 87.7702L259.16 123.98L222.95 87.7702C225.03 82.6802 226.18 77.1102 226.18 71.2802C226.18 47.1402 206.54 27.4902 182.39 27.4902C158.24 27.4902 138.6 47.1302 138.6 71.2802C138.6 95.4202 158.24 115.07 182.39 115.07C188.99 115.07 195.26 113.59 200.88 110.96L223.69 133.77H103.91C70.14 133.77 42.66 161.24 42.66 195.02V423.25ZM335.92 59.5002C342.42 59.5002 347.71 64.7902 347.71 71.2902C347.71 77.7902 342.42 83.0802 335.92 83.0802C329.42 83.0802 324.13 77.7902 324.13 71.2902C324.13 64.7902 329.42 59.5002 335.92 59.5002ZM170.62 71.2902C170.62 64.7902 175.91 59.5002 182.41 59.5002C188.91 59.5002 194.2 64.7902 194.2 71.2902C194.2 77.7902 188.91 83.0802 182.41 83.0802C175.91 83.0802 170.62 77.7902 170.62 71.2902ZM74.66 195.02C74.66 178.89 87.78 165.77 103.91 165.77H408.09C424.22 165.77 437.34 178.89 437.34 195.02V423.25C437.34 439.38 424.22 452.5 408.09 452.5H103.91C87.78 452.5 74.66 439.38 74.66 423.25V195.02Z" fill="#737373"/>
<path d="M132.97 430.6H295.56C315.28 430.6 331.33 414.56 331.33 394.83V223.43C331.33 203.71 315.29 187.66 295.56 187.66H132.97C113.25 187.66 97.2001 203.7 97.2001 223.43V394.83C97.2001 414.56 113.25 430.6 132.97 430.6ZM129.2 223.44C129.2 221.36 130.89 219.67 132.97 219.67H295.56C297.64 219.67 299.33 221.36 299.33 223.44V394.84C299.33 396.92 297.64 398.61 295.56 398.61H132.97C130.89 398.61 129.2 396.92 129.2 394.84V223.44Z" fill="#737373"/>
<path d="M384.82 301.379C409.29 301.379 429.21 281.469 429.21 256.989C429.21 232.519 409.3 212.609 384.82 212.609C360.34 212.609 340.43 232.519 340.43 256.989C340.43 281.469 360.35 301.379 384.82 301.379ZM384.82 244.609C391.65 244.609 397.21 250.169 397.21 256.989C397.21 263.809 391.65 269.379 384.82 269.379C377.99 269.379 372.43 263.819 372.43 256.989C372.43 250.159 377.99 244.609 384.82 244.609Z" fill="#737373"/>
<path d="M384.82 405.661C409.29 405.661 429.21 385.751 429.21 361.281C429.21 336.811 409.3 316.891 384.82 316.891C360.34 316.891 340.43 336.801 340.43 361.281C340.43 385.751 360.35 405.661 384.82 405.661ZM384.82 348.891C391.65 348.891 397.21 354.451 397.21 361.281C397.21 368.111 391.65 373.661 384.82 373.661C377.99 373.661 372.43 368.101 372.43 361.281C372.43 354.461 377.99 348.891 384.82 348.891Z" fill="#737373"/>
</svg>
