<svg width="512" height="512" viewBox="0 0 512 512" fill="none" xmlns="http://www.w3.org/2000/svg">
<path fill-rule="evenodd" clip-rule="evenodd" d="M253.324 499.265C386.95 499.265 495.276 390.852 495.276 257.117C495.276 123.382 386.95 14.9688 253.324 14.9688C119.697 14.9688 11.3716 123.382 11.3716 257.117C11.3716 390.852 119.697 499.265 253.324 499.265Z" fill="#FEFEFE"/>
<path fill-rule="evenodd" clip-rule="evenodd" d="M349.383 34.8516L364.927 115.059L456.951 126.411C431.103 86.1556 393.701 54.065 349.383 34.8516Z" fill="#4C4C4C"/>
<path fill-rule="evenodd" clip-rule="evenodd" d="M455.049 390.794C480.449 352.481 495.272 306.542 495.272 257.12C495.272 251.922 495.052 246.784 494.734 241.67L423.295 293.93L455.049 390.794Z" fill="#4C4C4C"/>
<path fill-rule="evenodd" clip-rule="evenodd" d="M340.698 482.921L255.021 423.535L173.46 485.698C198.473 494.455 225.329 499.266 253.322 499.266C284.143 499.266 313.585 493.438 340.698 482.921Z" fill="#4C4C4C"/>
<path opacity="0.3" fill-rule="evenodd" clip-rule="evenodd" d="M389.233 56.3145C414.611 94.6199 429.426 140.536 429.426 189.943C429.426 323.678 321.101 432.091 187.474 432.091C138.115 432.091 92.2277 417.264 53.9609 391.859C97.285 457.246 171.453 500.386 255.713 500.386C389.34 500.386 497.665 391.972 497.665 258.237C497.665 173.902 454.568 99.6736 389.233 56.3145Z" fill="#737373"/>
<mask id="mask0_146_4" style="mask-type:luminance" maskUnits="userSpaceOnUse" x="0" y="3" width="507" height="508">
<path d="M0.000732422 510.647H506.643V3.58789H0.000732422V510.647Z" fill="white"/>
</mask>
<g mask="url(#mask0_146_4)">
<path fill-rule="evenodd" clip-rule="evenodd" d="M253.326 26.3526C126.182 26.3526 22.747 129.871 22.747 257.118C22.747 384.358 126.182 487.884 253.326 487.884C380.47 487.884 483.897 384.358 483.897 257.118C483.897 129.871 380.47 26.3526 253.326 26.3526ZM253.326 510.649C113.641 510.649 0.000732422 396.909 0.000732422 257.118C0.000732422 117.32 113.641 3.58789 253.326 3.58789C393.011 3.58789 506.644 117.32 506.644 257.118C506.644 396.909 393.011 510.649 253.326 510.649Z" fill="#2E2E30"/>
</g>
<path fill-rule="evenodd" clip-rule="evenodd" d="M253.324 347.048L158.843 278.351L194.934 167.191H311.713L347.804 278.351L253.324 347.048Z" fill="#4C4C4C"/>
<path fill-rule="evenodd" clip-rule="evenodd" d="M172.219 273.997L253.324 332.973L334.438 273.997L303.457 178.575H203.192L172.219 273.997ZM253.324 358.432C250.982 358.432 248.631 357.703 246.637 356.261L152.157 287.557C148.176 284.659 146.508 279.522 148.032 274.824L184.108 163.672C185.639 158.982 190.006 155.811 194.927 155.811H311.714C316.642 155.811 321.01 158.982 322.534 163.672L358.624 274.824C360.141 279.522 358.473 284.651 354.492 287.557L260.012 356.261C258.018 357.703 255.675 358.432 253.324 358.432Z" fill="#2E2E30"/>
<path fill-rule="evenodd" clip-rule="evenodd" d="M171.33 29.2598C123.336 46.5609 82.4075 78.6136 53.9595 119.954L152.413 111.319L171.33 29.2598Z" fill="#4C4C4C"/>
<path fill-rule="evenodd" clip-rule="evenodd" d="M155.277 48.2463C126.208 61.9962 99.9888 81.938 78.8499 106.342L143.184 100.704L155.277 48.2463ZM53.9579 131.337C49.9318 131.337 46.1711 129.198 44.1315 125.684C41.91 121.875 42.0919 117.125 44.5864 113.498C74.9224 69.4326 117.42 36.5983 167.469 18.5535C171.382 17.1345 175.764 17.9768 178.88 20.7465C181.989 23.5162 183.346 27.7581 182.414 31.8178L163.496 113.877C162.382 118.68 158.31 122.224 153.405 122.657L54.9512 131.292C54.6175 131.322 54.2839 131.337 53.9579 131.337Z" fill="#2E2E30"/>
<path fill-rule="evenodd" clip-rule="evenodd" d="M374.514 104.777L432.494 111.925C413.789 88.7737 390.898 69.5451 364.899 55.1578L374.514 104.777ZM456.954 137.801C456.499 137.801 456.029 137.771 455.558 137.71L363.535 126.358C358.644 125.759 354.702 122.071 353.761 117.23L338.218 37.0219C337.414 32.8712 338.976 28.6218 342.259 25.981C345.558 23.3403 350.031 22.7257 353.905 24.4103C400.202 44.4812 439.143 77.6266 466.522 120.265C468.903 123.976 468.926 128.733 466.583 132.474C464.483 135.813 460.836 137.801 456.954 137.801Z" fill="#2E2E30"/>
<path fill-rule="evenodd" clip-rule="evenodd" d="M198.149 481.191C236.575 490.676 277.518 490.023 315.542 479.339L255.333 437.596L198.149 481.191ZM253.324 510.648C224.762 510.648 196.625 505.868 169.708 496.443C165.758 495.054 162.884 491.617 162.232 487.474C161.573 483.338 163.241 479.18 166.569 476.638L248.122 414.475C252.042 411.478 257.433 411.371 261.49 414.171L347.175 473.565C350.632 475.97 352.482 480.083 351.989 484.264C351.497 488.445 348.729 492.019 344.809 493.537C315.542 504.889 284.767 510.648 253.324 510.648Z" fill="#2E2E30"/>
<path fill-rule="evenodd" clip-rule="evenodd" d="M83.3521 293.93L11.9137 241.67C11.5877 246.784 11.3754 251.922 11.3754 257.12C11.3754 306.542 26.1984 352.481 51.5984 390.794L83.3521 293.93Z" fill="#4C4C4C"/>
<mask id="mask1_146_4" style="mask-type:luminance" maskUnits="userSpaceOnUse" x="0" y="230" width="95" height="173">
<path d="M0 230.287V402.173H94.7225V230.287H0H0Z" fill="white"/>
</mask>
<g mask="url(#mask1_146_4)">
<path fill-rule="evenodd" clip-rule="evenodd" d="M22.8425 263.763C23.8358 298.7 32.6462 332.619 48.6216 363.366L69.9728 298.244L22.8425 263.763ZM51.6014 402.173C47.8255 402.173 44.2468 400.291 42.1238 397.081C14.5629 355.528 -0.00231934 307.13 -0.00231934 257.116C-0.00231934 251.683 0.232725 246.31 0.566337 240.968C0.824128 236.817 3.32622 233.137 7.08693 231.369C10.8249 229.601 15.268 230.018 18.6193 232.485L90.0577 284.745C94.0459 287.651 95.6912 292.796 94.1521 297.478L62.4059 394.342C61.0487 398.485 57.4396 401.482 53.1254 402.074C52.6174 402.135 52.1018 402.173 51.6014 402.173Z" fill="#2E2E30"/>
</g>
<path fill-rule="evenodd" clip-rule="evenodd" d="M194.931 167.19L154.844 114.611Z" fill="#FEFEFE"/>
<path fill-rule="evenodd" clip-rule="evenodd" d="M194.936 178.574C191.508 178.574 188.127 177.034 185.89 174.097L145.811 121.518C141.997 116.517 142.96 109.377 147.949 105.568C152.961 101.751 160.081 102.714 163.887 107.715L203.966 160.286C207.78 165.287 206.817 172.428 201.828 176.237C199.765 177.815 197.339 178.574 194.936 178.574Z" fill="#2E2E30"/>
<path fill-rule="evenodd" clip-rule="evenodd" d="M311.716 167.19L364.927 115.066Z" fill="#FEFEFE"/>
<path fill-rule="evenodd" clip-rule="evenodd" d="M311.717 178.572C308.76 178.572 305.818 177.434 303.589 175.15C299.199 170.665 299.267 163.457 303.764 159.055L356.975 106.932C361.448 102.531 368.659 102.607 373.056 107.099C377.446 111.591 377.37 118.8 372.874 123.193L319.671 175.325C317.464 177.487 314.591 178.572 311.717 178.572Z" fill="#2E2E30"/>
<path fill-rule="evenodd" clip-rule="evenodd" d="M158.843 278.348L83.3552 293.926Z" fill="#FEFEFE"/>
<path fill-rule="evenodd" clip-rule="evenodd" d="M83.3362 305.312C78.0591 305.312 73.3203 301.609 72.2133 296.229C70.9395 290.067 74.9049 284.05 81.054 282.783L156.549 267.204C162.645 265.914 168.718 269.89 169.984 276.052C171.258 282.206 167.293 288.223 161.144 289.491L85.6488 305.077C84.8754 305.236 84.102 305.312 83.3362 305.312Z" fill="#2E2E30"/>
<path fill-rule="evenodd" clip-rule="evenodd" d="M436.674 298.235L458.025 363.358C474 332.618 482.811 298.698 483.804 263.762L436.674 298.235ZM455.053 402.171C454.545 402.171 454.037 402.133 453.529 402.073C449.207 401.481 445.605 398.484 444.248 394.34L412.494 297.477C410.948 292.795 412.601 287.65 416.589 284.743L488.02 232.483C491.379 230.025 495.814 229.615 499.552 231.36C503.313 233.128 505.815 236.801 506.08 240.952C506.459 246.893 506.649 252.19 506.649 257.115C506.649 307.121 492.084 355.519 464.53 397.08C462.407 400.29 458.829 402.171 455.053 402.171Z" fill="#2E2E30"/>
<path fill-rule="evenodd" clip-rule="evenodd" d="M347.804 278.348L423.291 293.926Z" fill="#FEFEFE"/>
<path fill-rule="evenodd" clip-rule="evenodd" d="M423.309 305.314C422.543 305.314 421.77 305.238 420.996 305.079L345.509 289.492C339.36 288.225 335.394 282.208 336.668 276.053C337.934 269.892 344 265.923 350.104 267.206L425.591 282.784C431.74 284.052 435.706 290.069 434.432 296.231C433.325 301.611 428.586 305.314 423.309 305.314Z" fill="#2E2E30"/>
<path fill-rule="evenodd" clip-rule="evenodd" d="M253.326 434.913C247.048 434.913 241.953 429.813 241.953 423.53V347.048C241.953 340.765 247.048 335.666 253.326 335.666C259.604 335.666 264.699 340.765 264.699 347.048V423.53C264.699 429.813 259.604 434.913 253.326 434.913Z" fill="#2E2E30"/>
</svg>
