<svg width="91" height="91" viewBox="0 0 91 91" fill="none" xmlns="http://www.w3.org/2000/svg">
<path d="M25.23 56.5878H21.164C20.393 55.5568 19.174 54.8788 17.791 54.8788C16.407 54.8788 15.187 55.5588 14.416 56.5898H12.744C11.76 54.2498 9.44402 52.6018 6.74902 52.6018C3.16502 52.6018 0.249023 55.5178 0.249023 59.1018C0.249023 62.6858 3.16502 65.6018 6.74902 65.6018C9.44202 65.6018 11.758 63.9558 12.743 61.6158H14.415C15.186 62.6488 16.406 63.3268 17.791 63.3268C19.177 63.3268 20.398 62.6468 21.168 61.6138H25.23V64.4928C25.23 65.8818 26.355 67.0068 27.743 67.0068H31.528V73.2748C31.387 73.3798 31.249 73.4898 31.122 73.6108H23.625C22.64 71.2728 20.324 69.6248 17.63 69.6248C14.046 69.6248 11.13 72.5408 11.13 76.1248C11.13 79.7088 14.046 82.6248 17.63 82.6248C20.324 82.6248 22.64 80.9788 23.625 78.6368H30.334C31.047 79.9628 32.43 80.8748 34.037 80.8748C36.366 80.8748 38.261 78.9798 38.261 76.6518C38.261 75.2688 37.584 74.0498 36.553 73.2808V67.0078H44.444V74.9748C43.413 75.7458 42.737 76.9648 42.737 78.3478C42.737 80.6778 44.63 82.5728 46.956 82.5728C49.286 82.5728 51.181 80.6778 51.181 78.3478C51.181 76.9648 50.501 75.7438 49.47 74.9748V67.0078H57.366V74.9748C56.337 75.7458 55.659 76.9648 55.659 78.3478C55.659 80.6778 57.55 82.5728 59.876 82.5728C62.208 82.5728 64.106 80.6778 64.106 78.3478C64.106 76.9648 63.426 75.7438 62.391 74.9728V66.6898C64.762 65.9598 66.604 64.0298 67.223 61.6158H71.571C71.817 61.9458 72.108 62.2368 72.438 62.4828V70.1308C70.098 71.1148 68.45 73.4318 68.45 76.1248C68.45 79.7088 71.366 82.6248 74.95 82.6248C78.534 82.6248 81.448 79.7088 81.448 76.1248C81.448 73.4318 79.802 71.1168 77.464 70.1328V62.4808C78.495 61.7108 79.175 60.4908 79.175 59.1078C79.175 56.7778 77.28 54.8808 74.95 54.8808C73.567 54.8808 72.346 55.5588 71.575 56.5898H67.456V52.1468H69.278C70.049 53.1818 71.27 53.8618 72.657 53.8618C74.985 53.8618 76.882 51.9668 76.882 49.6408C76.882 47.3108 74.986 45.4158 72.657 45.4158C71.276 45.4158 70.057 46.0918 69.288 47.1208H67.456V39.2298H73.272C74.043 40.2608 75.262 40.9388 76.645 40.9388C78.975 40.9388 80.872 39.0438 80.872 36.7158C80.872 34.3878 78.976 32.4928 76.645 32.4928C75.26 32.4928 74.04 33.1728 73.27 34.2038H67.456V31.1598C67.456 29.7728 66.331 28.6478 64.944 28.6478H62.391V22.2498C62.719 22.0038 63.01 21.7148 63.256 21.3868H70.651C71.635 23.7248 73.952 25.3728 76.645 25.3728C80.227 25.3728 83.143 22.4568 83.143 18.8728C83.143 15.2888 80.227 12.3728 76.645 12.3728C73.952 12.3728 71.635 14.0188 70.651 16.3608H63.256C62.485 15.3278 61.262 14.6478 59.875 14.6478C57.549 14.6478 55.658 16.5428 55.658 18.8728C55.658 20.2578 56.336 21.4768 57.365 22.2478V28.6478H49.47V22.2478C50.501 21.4778 51.181 20.2578 51.181 18.8728C51.181 16.5428 49.286 14.6478 46.956 14.6478C44.63 14.6478 42.737 16.5428 42.737 18.8728C42.737 20.2578 43.413 21.4768 44.444 22.2478V28.6478H36.553V20.2908C38.893 19.3068 40.541 16.9898 40.541 14.2968C40.541 10.7148 37.624 7.79883 34.04 7.79883C30.456 7.79883 27.539 10.7148 27.539 14.2968C27.539 16.9898 29.187 19.3068 31.527 20.2908V28.6478H27.742C26.354 28.6478 25.229 29.7728 25.229 31.1598V35.2848H21.163C20.392 34.2538 19.173 33.5758 17.79 33.5758C16.406 33.5758 15.186 34.2558 14.415 35.2868H9.26602V31.1008C11.604 30.1148 13.25 27.7998 13.25 25.1088C13.25 21.5248 10.334 18.6088 6.75002 18.6088C3.16602 18.6088 0.250023 21.5248 0.250023 25.1088C0.250023 27.8018 1.89902 30.1188 4.24102 31.1028V37.7978C4.24102 39.1868 5.36602 40.3118 6.75402 40.3118H14.417C15.188 41.3448 16.408 42.0228 17.792 42.0228C19.177 42.0228 20.398 41.3428 21.169 40.3098H25.231V45.4228H21.163C20.392 44.3938 19.174 43.7178 17.792 43.7178C15.463 43.7178 13.568 45.6128 13.568 47.9428C13.568 50.2708 15.463 52.1638 17.792 52.1638C19.179 52.1638 20.401 51.4838 21.171 50.4488H25.231V56.5878H25.23ZM6.75002 60.5758C5.93702 60.5758 5.27502 59.9138 5.27502 59.1008C5.27502 58.2878 5.93702 57.6258 6.75002 57.6258C7.56302 57.6258 8.22502 58.2878 8.22502 59.1008C8.22502 59.9138 7.56302 60.5758 6.75002 60.5758ZM17.631 77.5978C16.818 77.5978 16.156 76.9358 16.156 76.1228C16.156 75.3098 16.818 74.6478 17.631 74.6478C18.445 74.6478 19.107 75.3098 19.107 76.1228C19.107 76.9358 18.445 77.5978 17.631 77.5978ZM76.646 17.3978C77.459 17.3978 78.119 18.0598 78.119 18.8728C78.119 19.6858 77.459 20.3478 76.646 20.3478C75.832 20.3478 75.171 19.6858 75.171 18.8728C75.171 18.0598 75.831 17.3978 76.646 17.3978ZM34.041 12.8238C34.854 12.8238 35.516 13.4838 35.516 14.2968C35.516 15.1098 34.854 15.7718 34.041 15.7718C33.227 15.7718 32.565 15.1098 32.565 14.2968C32.565 13.4838 33.227 12.8238 34.041 12.8238ZM6.75002 23.6348C7.56302 23.6348 8.22502 24.2968 8.22502 25.1098C8.22502 25.9228 7.56302 26.5828 6.75002 26.5828C5.93702 26.5828 5.27502 25.9228 5.27502 25.1098C5.27502 24.2968 5.93702 23.6348 6.75002 23.6348ZM74.95 77.5978C74.137 77.5978 73.475 76.9358 73.475 76.1228C73.475 75.3098 74.137 74.6478 74.95 74.6478C75.763 74.6478 76.423 75.3098 76.423 76.1228C76.423 76.9358 75.763 77.5978 74.95 77.5978ZM30.256 33.6738H62.431V59.8358C62.431 61.0178 61.466 61.9808 60.283 61.9808H30.256V33.6738Z" fill="#737373"/>
<path d="M53.349 38.3105H39.334C37.946 38.3105 36.821 39.4355 36.821 40.8245V54.8325C36.821 56.2195 37.946 57.3445 39.334 57.3445H53.349C54.738 57.3445 55.863 56.2195 55.863 54.8325V40.8235C55.862 39.4355 54.737 38.3105 53.349 38.3105ZM50.837 52.3175H41.847V43.3355H50.837V52.3175Z" fill="#737373"/>
<path d="M84.239 43.1387C80.653 43.1387 77.737 46.0547 77.737 49.6387C77.737 53.2207 80.653 56.1367 84.239 56.1367C87.821 56.1367 90.735 53.2207 90.735 49.6387C90.735 46.0547 87.821 43.1387 84.239 43.1387ZM84.239 51.1107C83.425 51.1107 82.762 50.4507 82.762 49.6377C82.762 48.8237 83.424 48.1627 84.239 48.1627C85.05 48.1627 85.71 48.8227 85.71 49.6377C85.71 50.4507 85.05 51.1107 84.239 51.1107Z" fill="#737373"/>
</svg>
